<svg preserveAspectRatio="none" overflow="visible" style="display: block;" width="24" height="24" viewBox="0 0 24 24" fill="none" xmlns="http://www.w3.org/2000/svg">
<g id="Filter" clip-path="url(#clip0_0_6615)">
<g id="IconFilter24">
</g>
<path id="Vector 45" fill-rule="evenodd" clip-rule="evenodd" d="M3 5.5H21C21.84 5.5 22.5 6.16 22.5 7C22.5 7.84 21.84 8.5 21 8.5H3C2.16 8.5 1.5 7.84 1.5 7C1.5 6.16 2.16 5.5 3 5.5ZM6 10.5H18C18.84 10.5 19.5 11.16 19.5 12C19.5 12.84 18.84 13.5 18 13.5H6C5.16 13.5 4.5 12.84 4.5 12C4.5 11.16 5.16 10.5 6 10.5ZM15 15.5H9C8.16 15.5 7.5 16.16 7.5 17C7.5 17.84 8.16 18.5 9 18.5H15C15.84 18.5 16.5 17.84 16.5 17C16.5 16.16 15.84 15.5 15 15.5Z" fill="#7F7F7F"/>
</g>
<defs>
<clipPath id="clip0_0_6615">
<rect width="24" height="24" fill="white"/>
</clipPath>
</defs>
</svg>
